<?xml version="1.0" encoding="UTF-8"?>
<!DOCTYPE svg PUBLIC "-//W3C//DTD SVG 1.1//EN" "http://www.w3.org/Graphics/SVG/1.1/DTD/svg11.dtd">
<svg xmlns="http://www.w3.org/2000/svg" version="1.1" width="100px" height="100px" style="shape-rendering:geometricPrecision; text-rendering:geometricPrecision; image-rendering:optimizeQuality; fill-rule:evenodd; clip-rule:evenodd" xmlns:xlink="http://www.w3.org/1999/xlink">
<g><path style="opacity:0.591" fill="#fcc419" d="M 77.5,30.5 C 77.7373,31.791 77.404,32.791 76.5,33.5C 67.8524,40.4766 59.1857,47.4766 50.5,54.5C 41.1911,47.6917 32.0244,40.6917 23,33.5C 21.8547,38.6644 21.3547,43.9977 21.5,49.5C 21.6667,54.5 21.8333,59.5 22,64.5C 22.2784,65.4158 22.7784,66.0825 23.5,66.5C 23.2178,67.7777 22.5511,68.7777 21.5,69.5C 20.0337,68.653 19.2004,67.3197 19,65.5C 18.3333,55.1667 18.3333,44.8333 19,34.5C 19.2735,32.6711 20.1068,31.1711 21.5,30C 30.7626,28.8735 40.0959,28.3735 49.5,28.5C 57.8333,28.6667 66.1667,28.8333 74.5,29C 75.7375,29.2321 76.7375,29.7321 77.5,30.5 Z M 24.5,32.5 C 40.6715,31.1732 57.0049,31.1732 73.5,32.5C 66.1494,39.1809 58.4828,45.5142 50.5,51.5C 41.7967,45.1173 33.1301,38.784 24.5,32.5 Z M 41.5,35.5 C 42.5,35.5 43.5,35.5 44.5,35.5C 44.5,36.5 44.5,37.5 44.5,38.5C 43.5,38.5 42.5,38.5 41.5,38.5C 41.5,37.5 41.5,36.5 41.5,35.5 Z"/></g>
<g><path style="opacity:0.625" fill="#fcc418" d="M 42.5,32.5 C 43.8068,33.1534 45.1401,33.8201 46.5,34.5C 51.1471,33.2209 55.8138,33.2209 60.5,34.5C 54.3244,35.9237 48.4911,37.9237 43,40.5C 37.2506,38.3576 37.084,35.6909 42.5,32.5 Z M 41.5,35.5 C 41.5,36.5 41.5,37.5 41.5,38.5C 42.5,38.5 43.5,38.5 44.5,38.5C 44.5,37.5 44.5,36.5 44.5,35.5C 43.5,35.5 42.5,35.5 41.5,35.5 Z"/></g>
<g><path style="opacity:0.566" fill="#fcc419" d="M 77.5,30.5 C 78.1174,30.6107 78.6174,30.944 79,31.5C 79.6667,43.8333 79.6667,56.1667 79,68.5C 78.5,69 78,69.5 77.5,70C 58.6621,70.8288 39.9955,70.6622 21.5,69.5C 22.5511,68.7777 23.2178,67.7777 23.5,66.5C 28.8246,61.1793 34.4912,56.1793 40.5,51.5C 41.521,52.0016 41.6877,52.6683 41,53.5C 35.8333,58 30.6667,62.5 25.5,67C 41.5,67.6667 57.5,67.6667 73.5,67C 68.1667,62 62.8333,57 57.5,52C 58,51.8333 58.5,51.6667 59,51.5C 64.9465,55.7754 70.6132,60.4421 76,65.5C 76.4998,54.8385 76.6665,44.1719 76.5,33.5C 77.404,32.791 77.7373,31.791 77.5,30.5 Z"/></g>
</svg>
